<svg width="1440" height="250" viewBox="0 0 1440 250" fill="none" xmlns="http://www.w3.org/2000/svg">
<path d="M1378.63 201.411C1242.05 201.411 1272.3 152.016 1149.33 141.633C1026.35 131.25 971.058 180.242 882.592 180.242C794.127 180.242 751.473 158.165 626.43 110.383C501.509 62.7016 293.468 101.613 110.218 180.242C64.405 199.899 27.5848 217.238 0.00012207 232.157V0H1440V194.556C1421.77 198.79 1401.6 201.411 1378.63 201.411ZM92.3545 107.762C78.9874 107.762 68.0507 116.835 68.0507 127.923C68.0507 139.012 78.9874 148.085 92.3545 148.085C105.722 148.085 116.658 139.012 116.658 127.923C116.658 116.835 105.722 107.762 92.3545 107.762ZM989.772 58.3669C973.367 58.3669 960 69.4556 960 83.0645C960 96.6734 973.367 107.762 989.772 107.762C1006.18 107.762 1019.54 96.6734 1019.54 83.0645C1019.54 69.4556 1006.18 58.3669 989.772 58.3669ZM1057.22 36.1895C1049.8 36.1895 1043.85 41.129 1043.85 47.2782C1043.85 53.4274 1049.8 58.3669 1057.22 58.3669C1064.63 58.3669 1070.58 53.4274 1070.58 47.2782C1070.58 41.129 1064.63 36.1895 1057.22 36.1895Z" fill="#53389E"/>
</svg>
