<svg width="1440" height="250" viewBox="0 0 1440 250" fill="none" xmlns="http://www.w3.org/2000/svg">
<path d="M61.3671 201.411C197.954 201.411 167.696 152.016 290.673 141.633C413.651 131.25 468.942 180.242 557.408 180.242C645.873 180.242 688.527 158.165 813.57 110.383C938.491 62.7016 1146.53 101.613 1329.78 180.242C1375.59 199.899 1412.42 217.238 1440 232.157V0H0V194.556C18.2278 198.79 38.4 201.411 61.3671 201.411ZM1347.65 107.762C1361.01 107.762 1371.95 116.835 1371.95 127.923C1371.95 139.012 1361.01 148.085 1347.65 148.085C1334.28 148.085 1323.34 139.012 1323.34 127.923C1323.34 116.835 1334.28 107.762 1347.65 107.762ZM450.228 58.3669C466.633 58.3669 480 69.4556 480 83.0645C480 96.6734 466.633 107.762 450.228 107.762C433.823 107.762 420.456 96.6734 420.456 83.0645C420.456 69.4556 433.823 58.3669 450.228 58.3669ZM382.785 36.1895C390.197 36.1895 396.152 41.129 396.152 47.2782C396.152 53.4274 390.197 58.3669 382.785 58.3669C375.372 58.3669 369.418 53.4274 369.418 47.2782C369.418 41.129 375.372 36.1895 382.785 36.1895Z" fill="#53389E"/>
</svg>
