<svg width="1440" height="250" viewBox="0 0 1440 250" fill="none" xmlns="http://www.w3.org/2000/svg">
<path d="M61.3671 48.5887C197.954 48.5887 167.696 97.9839 290.673 108.367C413.651 118.75 468.942 69.7581 557.408 69.7581C645.873 69.7581 688.527 91.8347 813.57 139.617C938.491 187.298 1146.53 148.387 1329.78 69.7581C1375.59 50.1008 1412.42 32.7621 1440 17.8427V250H0V55.4435C18.2278 51.2097 38.4 48.5887 61.3671 48.5887ZM1347.65 142.238C1361.01 142.238 1371.95 133.165 1371.95 122.077C1371.95 110.988 1361.01 101.915 1347.65 101.915C1334.28 101.915 1323.34 110.988 1323.34 122.077C1323.34 133.165 1334.28 142.238 1347.65 142.238ZM450.228 191.633C466.633 191.633 480 180.544 480 166.935C480 153.327 466.633 142.238 450.228 142.238C433.823 142.238 420.456 153.327 420.456 166.935C420.456 180.544 433.823 191.633 450.228 191.633ZM382.785 213.81C390.197 213.81 396.152 208.871 396.152 202.722C396.152 196.573 390.197 191.633 382.785 191.633C375.372 191.633 369.418 196.573 369.418 202.722C369.418 208.871 375.372 213.81 382.785 213.81Z" fill="#53389E"/>
</svg>
