<svg width="1440" height="250" viewBox="0 0 1440 250" fill="none" xmlns="http://www.w3.org/2000/svg">
<path d="M1378.63 48.5887C1242.05 48.5887 1272.3 97.9839 1149.33 108.367C1026.35 118.75 971.058 69.7581 882.592 69.7581C794.127 69.7581 751.473 91.8347 626.43 139.617C501.509 187.298 293.468 148.387 110.218 69.7581C64.405 50.1008 27.5848 32.7621 0.00012207 17.8427V250H1440V55.4435C1421.77 51.2097 1401.6 48.5887 1378.63 48.5887ZM92.3545 142.238C78.9874 142.238 68.0507 133.165 68.0507 122.077C68.0507 110.988 78.9874 101.915 92.3545 101.915C105.722 101.915 116.658 110.988 116.658 122.077C116.658 133.165 105.722 142.238 92.3545 142.238ZM989.772 191.633C973.367 191.633 960 180.544 960 166.935C960 153.327 973.367 142.238 989.772 142.238C1006.18 142.238 1019.54 153.327 1019.54 166.935C1019.54 180.544 1006.18 191.633 989.772 191.633ZM1057.22 213.81C1049.8 213.81 1043.85 208.871 1043.85 202.722C1043.85 196.573 1049.8 191.633 1057.22 191.633C1064.63 191.633 1070.58 196.573 1070.58 202.722C1070.58 208.871 1064.63 213.81 1057.22 213.81Z" fill="#53389E"/>
</svg>
