<svg width="25" height="25" viewBox="0 0 25 25" fill="none" xmlns="http://www.w3.org/2000/svg">
<g clip-path="url(#clip0_95_383)">
<path fill-rule="evenodd" clip-rule="evenodd" d="M20.8333 0H22.9167V2.08333H25V4.16667H22.9167V6.25H20.8333V4.16667H18.75V2.08333H20.8333V0ZM8.33333 4.16667H16.6667V6.25H14.5833V8.33333H12.5V6.25H8.33333V4.16667ZM6.25 8.33333V6.25H8.33333V8.33333H6.25ZM6.25 16.6667H4.16667V8.33333H6.25V16.6667ZM8.33333 18.75H6.25V16.6667H8.33333V18.75ZM16.6667 18.75V20.8333H8.33333V18.75H16.6667ZM18.75 16.6667V18.75H16.6667V16.6667H18.75ZM16.6667 12.5V10.4167H18.75V8.33333H20.8333V16.6667H18.75V12.5H16.6667ZM12.5 12.5H16.6667V14.5833H12.5V12.5ZM12.5 12.5V8.33333H10.4167V12.5H12.5ZM4.16667 18.75H2.08333V20.8333H0V22.9167H2.08333V25H4.16667V22.9167H6.25V20.8333H4.16667V18.75Z" fill="#F8F8F8"/>
</g>
<defs>
<clipPath id="clip0_95_383">
<rect width="25" height="25" fill="white"/>
</clipPath>
</defs>
</svg>
