<svg width="21" height="21" viewBox="0 0 21 21" fill="none" xmlns="http://www.w3.org/2000/svg">
<path d="M4.25001 0.083313H12.5833V2.16665H4.25001V0.083313ZM2.16668 4.24998V2.16665H4.25001V4.24998H2.16668ZM2.16668 12.5833H0.0833435V4.24998H2.16668V12.5833ZM4.25001 14.6666H2.16668V12.5833H4.25001V14.6666ZM12.5833 14.6666V16.75H4.25001V14.6666H12.5833ZM14.6667 12.5833H12.5833V14.6666H14.6667V16.75H16.75V18.8333H18.8333V20.9166H20.9167V18.8333H18.8333V16.75H16.75V14.6666H14.6667V12.5833ZM14.6667 4.24998H16.75V12.5833H14.6667V4.24998ZM14.6667 4.24998V2.16665H12.5833V4.24998H14.6667Z" fill="#F8F8F8"/>
</svg>
